<svg id="Capa_1" enable-background="new 0 0 511.259 511.259" height="512" viewBox="0 0 511.259 511.259" width="512" xmlns="http://www.w3.org/2000/svg"><g><g><path d="m467.668 397.425c-5.317-14.219-20.461-26.227-33.977-32.22-52.596-23.376-110.888-24.608-166.735-21.495-.484-1.012-1.111-1.911-1.853-2.666.027-8.18.024-16.264-.01-24.621 37.245.598 93.326-2.665 121.855-31.062 25.489-25.49 13.745-56.164-15.949-71.011-33.321-16.661-72.21-19.381-105.904-19.103 0 0 .033-19.017 0-27.368 47.338 1.726 98.05 1.462 143.809-12.669 17.56-5.545 37.538-12.995 52.479-31.32 8.433-9.711 11.237-23.034 7.525-35.72-6.747-29.739-33.857-45.773-58.754-58.47-3.69-1.882-8.207-.416-10.089 3.274s-.416 8.207 3.274 10.088c21.924 11.181 45.753 25.081 50.984 48.624.039.178.085.354.138.528 2.352 7.837.684 16.027-4.461 21.906-.06.069-.119.139-.177.209-11.11 13.675-25.589 20.303-45.339 26.547-49.722 14.186-99.783 13.489-146.476 10.619-3.942-.394-7.983 3.788-7.96 7.533.095 14.843.096 28.57.005 43.139-.051 4.102 3.139 8.359 7.662 8.216 33.993-.756 73.24.716 106.574 17.384 20.255 10.128 29.822 29.2 12.212 46.828-28.998 25.562-77.972 26.951-114.369 25.937-5.223-.193-12.129.326-12.084 7.401.095 15.039.096 28.854.003 43.439-.063 4.292 3.531 8.346 7.978 7.902 56.846-3.648 116.707-3.803 169.412 19.569 19.042 9.563 34.902 26.723 24.625 48.592-20.285 32.553-56.578 46.272-89.497 55.417-49.354 14.208-123.044 24.377-193.838-7.863-8.827-4.019-15.041 9.633-6.217 13.651 34.14 15.547 71.613 22.619 109.03 22.619 30.911 0 62.883-4.697 95.107-13.974 33.665-9.352 75.271-24.883 98.373-62.285 6.986-11.282 7.209-25.403 2.644-37.575z"/><path d="m128.11 448.339c-38.822-32.483-62.712-84.318-71.004-154.064-3.025-33.371-1.743-64.733 3.905-95.8 18.081-94.024 90.973-176.289 190.069-182.929 44.014-2.196 83.031 2.23 115.98 13.154 3.931 1.302 8.176-.828 9.479-4.759s-.827-8.175-4.759-9.479c-34.732-11.514-75.61-16.19-121.509-13.894-105.905 5.043-184.959 96.106-204.004 195.149-5.914 32.526-7.252 65.243-4.09 100.021.006.068.013.136.021.205 3.95 33.291 11.521 63.254 22.504 89.057 13.09 30.755 31.186 55.936 53.783 74.843 7.3 6.112 17.148-5.21 9.625-11.504z"/><path d="m133.888 112.913c-3.227-2.596-7.947-2.086-10.545 1.14-50.75 63.053-45.392 152.9-45.139 156.694.63 9.441 15.621 8.826 14.967-.998-.058-.871-5.26-87.751 41.857-146.291 2.597-3.227 2.088-7.948-1.14-10.545z"/></g></g></svg>